# xmcd
# 
# Track frame offsets:
#     150
#     14097
#     29549
#     49332
#     66594
#     81670
#     100870
#     119833
#     136803
#     154233
#     172833
#     192033
# 
# Disc length: 2788
# 
# Revision: 0
# Processed by: cddbd v1.5.2PL0 Copyright (c) Steve Scherf et al.
# Submitted via: fre:ac v1.0.17
# 
DISCID=af0ae20c
DTITLE=Miranda Lambert - Kerosene
DYEAR=2005
DGENRE=Country
TTITLE0=Kerosene
TTITLE1=What About Georgía?
TTITLE2=Greyhound Bound For Nowhere
TTITLE3=New Strings
TTITLE4=I Can't Be Bothered
TTITLE5=Bring Me Down
TTITLE6=Me And Charlie Talking
TTITLE7=I Wanna Die
TTITLE8=Love Is Looking For You
TTITLE9=Mama, I'm Alright
TTITLE10=There's A Wall
TTITLE11=Love Your Memory
EXTD=YEAR: 2005
EXTT0=
EXTT1=
EXTT2=
EXTT3=
EXTT4=
EXTT5=
EXTT6=
EXTT7=
EXTT8=
EXTT9=
EXTT10=
EXTT11=
PLAYORDER=
